<svg xmlns="http://www.w3.org/2000/svg" id="Layer_1" viewBox="0 0 792 130.82"><defs><style>.st0{fill:#e62647}.st1{isolation:isolate}.st2{fill:#58585a}</style></defs><g class="st1"><g class="st1"><path d="M64.11 40.85v11.51H50.23v40.52H35.76V52.36H22.03V40.85H64.1ZM102.41 84.4H83.96l-2.8 8.49H65.95l18.97-52.04h16.68l18.9 52.04h-15.28l-2.8-8.49ZM98.8 73.33 93.19 56.5l-5.54 16.83zM156 92.89l-16.31-22.81v22.81h-14.47V40.85h14.47v22.44l16.16-22.44h16.68l-19.12 25.24 20.08 26.79H156ZM193.27 52.44v8.49h16.61v11h-16.61v9.37h18.82v11.59H178.8V40.85h33.29v11.59z" class="st2"/></g></g><g class="st1"><g class="st1"><path d="M240.69 89.75c-3.52-2.44-5.28-5.89-5.28-10.37 0-.44.05-1.11.15-1.99h13.14c-.15 1.87.29 3.35 1.33 4.43 1.03 1.08 2.61 1.62 4.72 1.62 1.92 0 3.43-.42 4.54-1.25 1.11-.84 1.66-2.02 1.66-3.54s-.7-2.85-2.1-3.84c-1.4-.98-3.58-2.09-6.53-3.32-2.85-1.18-5.18-2.3-6.98-3.36s-3.36-2.5-4.69-4.32-1.99-4.11-1.99-6.86c-.05-3.4.79-6.35 2.51-8.86s4.11-4.43 7.16-5.76 6.54-1.99 10.48-1.99c3.54 0 6.69.55 9.45 1.66 2.75 1.11 4.9 2.71 6.42 4.8s2.29 4.57 2.29 7.42c0 .74-.03 1.28-.07 1.62h-13.43c.05-.2.07-.49.07-.89q0-2.07-1.44-3.36c-.96-.86-2.28-1.29-3.95-1.29q-2.655 0-4.32 1.29c-1.11.86-1.66 2.03-1.66 3.51s.69 2.72 2.07 3.73q2.07 1.515 6.42 3.51c2.9 1.33 5.28 2.56 7.12 3.69 1.85 1.13 3.43 2.65 4.76 4.54s1.99 4.22 1.99 6.97c0 3.05-.81 5.78-2.44 8.19-1.62 2.41-3.96 4.29-7.01 5.65-3.05 1.35-6.62 2.03-10.7 2.03-5.61 0-10.17-1.22-13.69-3.65ZM333.73 41.08l-9.15 51.81h-12.62l3.76-21.48h-19.63l-3.76 21.48h-12.62l9.15-51.81h12.62l-3.62 20.37h19.63l3.62-20.37zM353.66 51.04l-1.85 10.78h16.9l-1.7 9.52h-16.9l-2.07 11.59h19.12l-1.77 9.96h-31.74l9.15-51.81h31.74l-1.77 9.96h-19.12ZM387.9 83.29h16.53l-1.7 9.6h-29.15l9.15-51.81h12.62l-7.46 42.22ZM455.22 41.08l-1.7 9.96h-13.8l-7.38 41.85h-12.62l7.38-41.85h-13.73l1.77-9.96zM472.42 51.04l-1.85 10.78h16.9l-1.7 9.52h-16.9l-2.07 11.59h19.12l-1.77 9.96h-31.74l9.15-51.81h31.74l-1.77 9.96h-19.12ZM534.93 44.73c2.8 2.44 4.21 5.6 4.21 9.48 0 1.13-.1 2.19-.29 3.17-.59 3.45-2.09 6.52-4.5 9.23s-5.63 4.63-9.67 5.76l8.34 20.52h-14.25l-7.31-19.56h-3.03l-3.47 19.56h-12.62l9.15-51.81h21.18c5.36 0 9.45 1.22 12.25 3.65Zm-8.86 11.62c0-1.57-.5-2.79-1.51-3.65q-1.515-1.29-4.47-1.29h-7.82l-2.29 12.99h7.82c2.31 0 4.15-.57 5.5-1.7s2.23-2.73 2.62-4.8c.1-.79.15-1.3.15-1.55" class="st0"/></g></g><g class="st1"><g class="st1"><path d="M606.1 92.89h-14.47l-19.26-29.08v29.08H557.9V40.85h14.47l19.26 29.45V40.85h14.47zM625.88 89.97c-4.08-2.29-7.32-5.46-9.71-9.52s-3.58-8.65-3.58-13.77 1.19-9.71 3.58-13.77 5.62-7.22 9.71-9.49c4.08-2.26 8.56-3.39 13.43-3.39s9.41 1.13 13.47 3.39 7.27 5.43 9.63 9.49q3.54 6.09 3.54 13.77c0 7.68-1.18 9.71-3.54 13.77s-5.58 7.23-9.67 9.52-8.56 3.43-13.43 3.43-9.35-1.14-13.43-3.43m22.18-13.61c2.14-2.41 3.21-5.63 3.21-9.67s-1.07-7.39-3.21-9.78-5.06-3.58-8.75-3.58-6.67 1.19-8.78 3.58c-2.12 2.39-3.17 5.65-3.17 9.78s1.06 7.32 3.17 9.71c2.12 2.39 5.04 3.58 8.78 3.58s6.61-1.21 8.75-3.62M745.75 40.85l-12.77 52.04h-17.79L708.03 61l-7.31 31.89h-17.79l-12.62-52.04h15.65l6.05 35.58 8.19-35.58h15.87l7.97 35.28 6.05-35.28h15.65Z" class="st2"/></g></g></svg>