<svg xmlns="http://www.w3.org/2000/svg" version="1.1" id="Layer_1" viewBox="0 0 264.28 289.35" width="264.28" height="289.35"><metadata><rdf:RDF xmlns:rdf="http://www.w3.org/1999/02/22-rdf-syntax-ns#" xmlns:dc="http://purl.org/dc/elements/1.1/"><rdf:Description><dc:creator>RealFaviconGenerator</dc:creator><dc:source>https://realfavicongenerator.net</dc:source></rdf:Description></rdf:RDF></metadata><defs>
    <style>
      .st0 {
        fill: #504c4a;
      }

      .st1 {
        fill: #e62647;
      }

      .st2 {
        fill: #fff;
      }

      .st3 {
        display: none;
      }
    </style>
  </defs><g>
    <path class="st1" d="M137.78,268.32c-16.68-27.79-35-54.6-51.95-82.23-21.63-35.27-44.57-63.09-33.29-107.44C72.02,2.05,176.88-11.51,216.26,57.42c32.73,57.3-12.56,109.6-42.29,156.64-11.27,17.83-23.01,35.38-34.05,53.35l-2.13.91Z"></path>
    <g id="op6rs1">
      <g>
        <path class="st0" d="M124.3,141.01c-.91-.2-2.19-2.12-1.85-3.09l6.79-18.39c-7.76-.37-15.97.49-23.67,0-11.77-.76-21.67-9.38-23.39-21.13-1.56-10.65,5.44-21.37,15.91-23.86-.38-19.19,19.97-31.62,36.9-21.77,4.15,2.42,7.99,6.67,9.71,11.16,15.22-15.03,40.32-2.06,36.97,18.96,21.86.2,27.49,33.52,3.92,36.64h-34.14s-3.21,8.09-3.21,8.09h10.26c1.27,0,2.71,3.25,1.24,4.27-9.93,10.85-18.81,23.49-28.84,34.15-2.41,2.56-4.82,3.09-5.87-.85l7.26-24.17h-7.98ZM120.83,54.9c-8.72.73-16.37,7.94-17.16,16.73-.16,1.79.57,5.16-.39,6.44-.74.98-5.09,1.97-6.62,2.74-16.7,8.37-8.72,32.04,8.64,33.16h80.29c16.87-3.52,10.08-25.75-5.33-25.81-1.41,0-2.41.72-3.9-.12-2.49-1.4-.71-4.13-.34-6.11,2.9-15.51-16.61-25.34-27.55-14.1-1.2,1.24-2.6,4.43-4.18,4.67-3.44.54-3.23-3-4.05-5.28-2.85-8-10.94-13.02-19.41-12.32ZM145.44,119.52h-10.38l-5.82,16.17h7.98c.35,0,2.04,2.17,1.63,2.87-1.02,4.52-3.12,9.08-4.18,13.54-.06.26-.36,1.06.14,1.02l16.72-20.22h-8.23c-.72,0-2.43-2.2-1.88-3.13l4.03-10.26Z"></path>
        <path class="st3" d="M165.12,135.5c2.05-.42,3.73,1.25,3.3,3.3-.1.48-3.05,6.35-3.38,6.74-1.78,2.05-5.31.52-4.61-2.83.16-.78,3.08-6.29,3.65-6.72.24-.18.75-.43,1.04-.48Z"></path>
        <path class="st3" d="M178.81,122.1c2.05-.3,3.39,1.53,2.99,3.5-.16.8-2.78,6-3.33,6.54-1.97,1.93-5.18.16-4.61-2.58.13-.61,2.58-5.44,3.02-6.08.48-.67,1.06-1.26,1.92-1.38Z"></path>
        <path class="st3" d="M102.57,149.4c2.15-.49,3.92.84,3.61,3.08-.07.47-2.81,6.02-3.16,6.45-1.7,2.04-5.19.64-4.88-2.07.07-.65,2.55-5.66,3.03-6.34.35-.49.78-.98,1.4-1.12Z"></path>
        <path class="st3" d="M151.19,149.4c2.15-.49,3.92.84,3.61,3.08-.07.47-2.81,6.02-3.16,6.45-1.7,2.04-5.19.64-4.88-2.07.07-.65,2.55-5.66,3.03-6.34.35-.49.78-.98,1.4-1.12Z"></path>
        <path class="st3" d="M175.5,149.4c2.15-.49,3.92.84,3.61,3.08-.07.47-2.81,6.02-3.16,6.45-1.7,2.04-5.19.64-4.88-2.07.07-.65,2.55-5.66,3.03-6.34.35-.49.78-.98,1.4-1.12Z"></path>
        <path class="st3" d="M105.62,122.36c1.88-.31,3.57,1.11,3.3,3.04-.11.76-2.84,6.2-3.39,6.74-1.97,1.93-5.18.16-4.61-2.58.12-.56,2.71-5.69,3.12-6.23s.88-.86,1.57-.97Z"></path>
        <path class="st3" d="M92.2,135.75c2.09-.39,3.45,1.62,3.04,3.56-.1.46-2.81,5.86-3.13,6.23-1.78,2.05-5.31.52-4.61-2.83.11-.55,2.47-5.21,2.87-5.73s1.21-1.12,1.82-1.23Z"></path>
        <path class="st3" d="M116.51,135.75c2.09-.39,3.45,1.62,3.04,3.56-.1.46-2.81,5.86-3.13,6.23-1.78,2.05-5.31.52-4.61-2.83.11-.55,2.47-5.21,2.87-5.73s1.21-1.12,1.82-1.23Z"></path>
        <path class="st3" d="M189.44,135.75c2.09-.39,3.45,1.62,3.04,3.56-.1.46-2.81,5.86-3.13,6.23-1.78,2.05-5.31.52-4.61-2.83.11-.55,2.47-5.21,2.87-5.73s1.21-1.12,1.82-1.23Z"></path>
        <path class="st2" d="M120.83,54.9c8.47-.71,16.57,4.32,19.41,12.32.81,2.29.6,5.82,4.05,5.28,1.58-.25,2.98-3.44,4.18-4.67,10.94-11.24,30.45-1.41,27.55,14.1-.37,1.98-2.15,4.71.34,6.11,1.5.84,2.49.12,3.9.12,15.4.07,22.19,22.29,5.33,25.81h-80.29c-17.37-1.13-25.34-24.79-8.64-33.16,1.53-.77,5.89-1.76,6.62-2.74.96-1.27.23-4.64.39-6.44.8-8.79,8.44-16.01,17.16-16.73Z"></path>
        <path class="st2" d="M145.44,119.52l-4.03,10.26c-.55.93,1.17,3.13,1.88,3.13h8.23l-16.72,20.22c-.5.04-.2-.77-.14-1.02,1.05-4.46,3.16-9.02,4.18-13.54.41-.7-1.28-2.87-1.63-2.87h-7.98l5.82-16.17h10.38Z"></path>
      </g>
    </g>
  </g><path class="st2" d="M181.65,82.88c3.35-21.02-21.74-33.98-36.97-18.96-1.72-4.5-5.55-8.75-9.71-11.16-16.93-9.85-37.28,2.57-36.9,21.77-10.47,2.48-17.47,13.21-15.91,23.86,1.72,11.75,11.62,20.38,23.39,21.13,7.71.5,15.91-.37,23.67,0l-6.79,18.39c-.34.97.94,2.9,1.85,3.09h7.98l-7.26,24.17c1.05,3.94,3.45,3.41,5.87.85,10.03-10.66,18.91-23.3,28.84-34.15,1.47-1.03.03-4.27-1.24-4.27h-10.26l3.21-8.1h34.14c23.57-3.12,17.93-36.44-3.92-36.64Z"></path><style>@media (prefers-color-scheme: light) { :root { filter: none; } }
@media (prefers-color-scheme: dark) { :root { filter: none; } }
</style></svg>